<svg width="18" height="18" viewBox="0 0 18 18" fill="none" xmlns="http://www.w3.org/2000/svg">
<path d="M15.8491 4.52434H7.73651C6.49046 4.52434 6.31561 2.23351 6.0559 1.37057C5.9302 0.952892 5.54675 0.666668 5.1126 0.666668H1.65209C0.296379 0.666668 0.217371 3.49393 1.65209 3.49393C2.41368 3.49393 3.67532 3.2395 3.96333 4.1989L6.00203 11.0142C6.32949 12.1051 7.41328 12.774 8.52875 12.5598C11.0578 12.0788 13.6383 11.476 15.9547 10.323C16.6677 9.96898 17.1494 9.27992 17.2455 8.48697C17.3545 7.5765 17.3561 6.66561 17.2466 5.75511C17.1621 5.04803 16.5579 4.52434 15.8491 4.52434Z" fill="#172029"/>
<path d="M5.33147 15.5672C5.33147 16.5425 6.12054 17.3333 7.09236 17.3333C8.06417 17.3333 8.85326 16.5425 8.85326 15.5672C8.85326 14.5909 8.06417 13.8 7.09236 13.8C6.12054 13.8 5.33147 14.5909 5.33147 15.5672Z" fill="#172029"/>
<path d="M14.3107 17.3333C13.3389 17.3333 12.5499 16.5425 12.5499 15.5672C12.5499 14.5909 13.3389 13.8 14.3107 13.8C15.2826 13.8 16.0716 14.5909 16.0716 15.5672C16.0716 16.5425 15.2826 17.3333 14.3107 17.3333Z" fill="#172029"/>
</svg>
